Genre:Drama | Thriller
Language:English
IMDb:http://www.imdb.com/title/tt1319704/
Source:DVD9 RUS

General
Complete name :Chatroom 2010 R5 XviD Ac3 Feel-Free
Format : AVI
Format/Info : Audio Video Interleave
File size : 1.10 GiB
Duration : 1h 33mn
Overall bit rate : 1 679 Kbps
Video #0
Codec ID : XVID
Codec ID/Hint : XviD
Duration : 1h 33mn
Bit rate : 1 221 Kbps
Width : 652 pixels
Height : 352 pixels
Display aspect ratio : 1.852
Frame rate : 25.000 fps
Resolution : 24 bits
Colorimetry : 4:2:0
Scan type : Progressive
Bits/(Pixel*Frame) : 0.213
Stream size : 817 MiB (73%)
Writing library : XviD 1.2.1 (UTC 2008-12-04)
Audio #1
ID : 1
Format : AC-3
Format/Info : Audio Coding 3
Codec ID : 2000
Duration : 1h 33mn
Bit rate mode : Constant
Bit rate : 448 Kbps
Channel(s) : 6 channels
Channel positions : Front: L C R, Surround: L R, LFE
Sampling rate : 48.0 KHz
Stream size : 300 MiB (27%)
Alignment : Split accross interleaves
Interleave, duration : 40 ms (1.00 video frame)
Interleave, preload duration : 500 ms

Plot:
A group of teenagers encourage each other's bad behavior.

